<?xml version="1.0" standalone="no"?>
<!DOCTYPE svg PUBLIC "-//W3C//DTD SVG 20010904//EN"
 "http://www.w3.org/TR/2001/REC-SVG-20010904/DTD/svg10.dtd">
<svg version="1.0" xmlns="http://www.w3.org/2000/svg"
 width="512.000000pt" height="512.000000pt" viewBox="0 0 512.000000 512.000000"
 preserveAspectRatio="xMidYMid meet">
<metadata>
Created by potrace 1.14, written by Peter Selinger 2001-2017
</metadata>
<g transform="translate(0.000000,512.000000) scale(0.100000,-0.100000)"
fill="#000000" stroke="none">
<path d="M2472 4953 c-36 -7 -90 -68 -98 -110 -4 -21 -2 -54 5 -78 7 -22 13
-46 13 -52 1 -7 4 -11 6 -8 8 8 32 -16 26 -26 -3 -5 3 -6 12 -2 13 5 15 3 9
-7 -5 -8 -4 -11 3 -7 5 4 17 4 26 1 14 -5 16 -97 16 -906 0 -656 -3 -897 -11
-892 -6 3 -41 37 -77 75 -37 38 -70 69 -73 69 -4 0 -15 -22 -25 -50 -10 -27
-22 -50 -26 -50 -5 0 -120 27 -256 61 -136 33 -327 80 -424 104 -98 24 -182
46 -188 50 -6 4 -2 21 10 46 13 24 25 37 32 33 7 -4 8 -3 4 5 -4 6 4 31 18 56
14 24 26 46 26 49 0 3 -26 6 -57 6 l-58 0 2 247 c2 315 0 288 18 273 13 -11
14 -10 9 3 -4 12 -1 15 15 12 12 -2 19 0 17 4 -7 10 28 43 36 35 3 -3 6 1 5 8
-1 7 3 30 7 51 5 20 5 52 2 71 -7 38 -54 92 -92 106 -113 43 -236 -71 -198
-184 8 -21 11 -42 8 -47 -3 -5 0 -8 8 -7 7 2 12 -3 10 -10 -1 -6 4 -11 10 -10
7 2 12 -3 10 -10 -1 -8 2 -11 8 -7 5 3 24 -1 42 -9 l33 -16 -2 -242 c0 -134
-1 -249 -2 -255 -1 -9 -19 -13 -56 -13 -62 0 -62 0 -12 -84 16 -27 29 -57 30
-67 1 -10 4 -17 7 -16 3 1 6 -1 7 -6 2 -4 12 -17 23 -29 11 -12 20 -30 20 -39
0 -10 5 -21 10 -24 6 -4 9 -3 8 2 -2 4 2 8 7 8 6 0 9 -4 7 -9 -2 -5 4 -3 13 4
10 8 19 10 23 4 4 -5 25 -10 47 -11 22 -2 42 -8 43 -13 2 -6 7 -8 12 -5 10 6
220 -46 215 -55 -2 -3 8 -5 23 -5 39 2 154 -30 145 -40 -4 -4 -3 -5 4 -1 11 6
163 -25 203 -41 8 -3 23 -5 34 -4 12 2 16 -1 11 -10 -5 -7 -4 -10 1 -6 5 3 31
1 57 -5 44 -9 47 -11 41 -36 -4 -15 -13 -39 -20 -53 -13 -25 -12 -27 11 -31
15 -3 22 -1 18 5 -4 6 2 8 15 5 12 -4 22 -3 22 1 0 4 6 8 13 8 6 0 21 4 31 9
15 6 17 4 11 -7 -5 -8 1 -6 13 4 11 11 26 16 31 12 6 -3 11 -1 11 5 0 6 10 10
23 8 13 -2 21 -9 19 -18 -2 -8 0 -11 5 -7 4 5 8 14 8 19 0 6 6 13 13 16 9 3
12 -233 12 -1155 l0 -1160 -27 -13 c-110 -55 -124 -199 -26 -267 44 -30 120
-30 165 1 20 13 39 22 42 20 3 -2 4 -1 1 2 -2 4 3 20 12 37 35 69 -4 171 -78
204 l-37 16 0 508 0 508 27 -11 c14 -5 33 -11 41 -13 36 -7 146 -36 160 -42
32 -13 42 -12 35 5 -4 9 -13 36 -20 59 l-13 41 70 16 c39 9 74 13 79 10 5 -3
9 0 9 5 0 6 7 11 16 11 9 0 13 -5 9 -12 -4 -7 -1 -6 7 2 18 20 37 23 54 9 12
-10 13 -8 8 7 -4 10 -4 16 1 12 4 -4 14 -3 22 3 10 9 17 8 30 -2 9 -8 14 -9
10 -2 -4 7 1 14 13 17 11 3 29 9 40 12 16 4 19 2 13 -13 -5 -15 -3 -15 13 3
17 19 48 29 153 49 13 2 48 12 79 20 30 9 61 14 68 11 8 -3 14 -2 14 3 0 8 4
9 52 14 16 2 31 7 35 10 3 4 13 7 21 7 12 0 12 -3 1 -17 -13 -16 -12 -17 3 -4
10 7 15 17 12 22 -3 5 0 9 6 9 6 0 10 6 8 13 -4 18 95 186 106 180 5 -4 6 -2
3 4 -3 5 1 22 9 37 7 16 14 30 14 32 0 1 -25 4 -57 6 l-56 3 -2 73 c0 40 3 76
7 78 5 3 5 10 2 16 -10 16 -11 111 -2 130 4 9 5 19 0 22 -4 2 -7 42 -6 87 1
82 2 84 30 95 16 7 32 10 36 8 4 -3 5 3 1 12 -4 11 -3 15 5 10 6 -3 13 3 17
14 3 11 10 20 15 20 13 0 23 83 15 120 -4 17 -22 46 -41 65 -76 76 -203 49
-243 -52 -12 -29 -12 -83 0 -122 5 -19 36 -51 49 -51 6 0 10 -4 10 -9 0 -5 15
-12 33 -16 17 -4 27 -9 20 -12 -8 -3 -9 -12 -5 -26 4 -12 7 -121 7 -242 l-1
-220 -56 -3 c-49 -3 -56 -6 -55 -22 1 -11 6 -21 12 -24 5 -2 24 -30 40 -62 17
-33 33 -61 38 -62 4 -2 5 -8 1 -13 -3 -5 0 -9 6 -9 7 0 9 -7 6 -16 -3 -8 -2
-12 4 -9 6 3 10 2 10 -2 0 -7 -261 -75 -344 -90 -11 -2 -47 -11 -80 -19 -34
-9 -68 -17 -76 -19 -8 -2 -53 -12 -100 -24 -254 -61 -234 -60 -255 -4 -10 26
-20 50 -22 52 -2 3 -41 -32 -87 -78 l-84 -83 0 1561 c1 858 3 1560 7 1559 29
-6 111 66 111 98 0 8 4 13 8 10 5 -3 5 19 1 49 -15 109 -86 159 -197 138z"/>
<path d="M3925 4658 c-16 -24 -54 -75 -87 -114 -32 -39 -58 -76 -58 -82 0 -6
-4 -14 -10 -17 -18 -11 2 29 43 85 23 30 32 48 21 40 -33 -25 -62 -62 -125
-152 -33 -49 -67 -88 -76 -88 -14 0 -13 3 3 22 10 12 13 18 6 14 -8 -5 -34
-40 -59 -80 -24 -39 -84 -109 -131 -155 -48 -46 -73 -76 -57 -67 l30 17 -25
-21 c-154 -131 -163 -140 -199 -193 -35 -51 -72 -90 -79 -82 -3 2 7 23 22 46
33 49 18 43 -33 -14 -68 -75 -80 -91 -107 -141 -15 -28 -39 -69 -53 -91 -28
-45 -30 -51 -36 -117 -3 -35 0 -48 11 -52 9 -3 13 -10 10 -14 -3 -5 5 -8 17
-8 13 1 21 -4 19 -12 -1 -8 2 -11 8 -7 6 4 9 10 5 13 -7 8 55 33 65 27 5 -3
12 0 16 6 5 8 2 10 -7 5 -8 -4 -5 0 5 8 24 19 40 21 30 4 -4 -8 -3 -10 2 -5 5
5 9 14 9 20 0 7 15 19 32 28 18 9 30 18 27 21 -2 3 2 11 11 18 8 7 15 10 15 7
0 -11 137 130 143 147 4 10 12 14 17 11 6 -4 9 -1 8 7 -2 7 3 12 10 10 8 -1
11 2 7 8 -8 13 30 62 40 52 5 -4 5 -2 2 4 -4 7 4 32 18 58 13 25 25 50 25 54
3 18 33 72 41 72 5 0 9 7 9 15 0 8 4 15 9 15 5 0 12 7 15 16 5 12 3 14 -7 8
-7 -5 -4 -1 6 9 11 9 16 17 12 17 -5 0 4 11 19 25 15 14 24 25 21 25 -3 0 8
20 26 45 17 24 36 42 42 38 6 -3 7 -1 4 4 -7 11 16 66 24 58 3 -2 5 4 6 13 1
24 26 86 38 94 6 5 6 8 0 8 -5 0 -27 -17 -49 -37 -31 -29 -35 -31 -16 -8 14
16 28 32 31 35 3 3 18 26 33 53 30 51 46 65 22 18 -14 -26 -14 -30 -1 -41 13
-10 14 -10 10 1 -3 8 8 29 25 47 16 18 30 36 30 38 0 12 28 32 35 26 5 -4 5
-2 2 5 -4 6 9 30 29 54 39 47 67 99 78 142 9 37 3 34 -29 -15z m-335 -448
c-12 -16 -25 -30 -30 -30 -4 0 4 14 18 30 15 17 28 30 30 30 2 0 -6 -13 -18
-30z m-120 -93 c0 -2 -10 -12 -22 -23 l-23 -19 19 23 c18 21 26 27 26 19z
m-46 -244 c-34 -54 -69 -92 -86 -93 -14 0 -8 15 17 45 97 118 127 138 69 48z"/>
<path d="M4511 4202 c-34 -54 -81 -102 -81 -84 0 22 -69 -50 -117 -122 -52
-78 -92 -126 -105 -126 -5 0 -6 5 -3 10 3 6 2 10 -2 10 -5 0 -24 -26 -43 -57
-18 -32 -79 -103 -134 -157 -81 -79 -91 -92 -51 -64 101 70 103 64 4 -9 -107
-78 -178 -144 -225 -209 -39 -55 -70 -82 -81 -70 -2 2 2 10 9 17 7 8 21 28 31
44 10 17 -14 -3 -52 -43 -59 -61 -141 -177 -141 -199 0 -3 -12 -21 -26 -40
-14 -19 -24 -37 -21 -40 3 -3 1 -17 -4 -31 -10 -26 -3 -102 9 -101 4 1 24 1
45 0 26 -1 36 -5 31 -13 -4 -7 -3 -8 5 -4 6 4 9 11 6 16 -3 4 2 10 9 13 8 3
17 1 20 -6 2 -7 5 -4 5 7 1 12 6 16 17 12 8 -3 12 -2 9 4 -3 5 4 14 15 20 16
9 25 8 38 -2 15 -12 16 -11 4 4 -11 14 -11 18 5 26 10 5 25 7 33 5 12 -4 12
-2 2 5 -10 7 -4 16 23 36 31 24 38 26 53 14 15 -12 16 -11 3 5 -12 15 -8 23
37 70 78 81 112 119 112 127 0 3 9 16 20 28 12 12 17 22 13 22 -4 0 -3 4 2 8
6 4 23 37 39 74 16 40 33 65 39 61 6 -3 7 -1 3 5 -4 7 4 23 18 37 30 30 33 40
9 31 -16 -5 -16 -4 -3 6 20 17 89 102 87 108 -3 11 37 49 46 43 6 -3 7 -2 4 4
-3 5 11 45 33 89 22 43 40 85 40 91 0 7 -41 -29 -91 -80 l-92 -92 76 83 c42
46 84 96 94 113 10 16 21 29 26 29 4 0 5 -4 2 -10 -3 -5 -3 -10 2 -10 13 0 71
66 78 90 3 11 11 18 16 15 5 -4 9 -1 9 5 0 6 13 24 29 39 16 16 27 32 24 35
-4 3 -1 6 5 6 11 0 64 101 69 132 4 28 -2 22 -36 -30z m-120 -152 c-23 -29
-41 -57 -41 -63 0 -5 -3 -8 -6 -4 -8 7 24 63 57 100 40 47 32 21 -10 -33z
m-58 -95 c-3 -9 -8 -14 -10 -11 -3 3 -2 9 2 15 9 16 15 13 8 -4z m-315 -511
c-81 -112 -94 -128 -105 -131 -23 -8 -4 40 29 75 38 40 102 101 106 102 1 0
-12 -20 -30 -46z"/>
<path d="M1285 3820 c-3 -6 1 -7 9 -4 18 7 21 14 7 14 -6 0 -13 -4 -16 -10z"/>
<path d="M5070 3721 c-35 -55 -54 -74 -79 -78 -23 -3 -88 -76 -141 -158 -25
-39 -50 -76 -57 -82 -14 -15 -37 -17 -28 -3 3 6 2 10 -2 10 -5 0 -24 -26 -42
-57 -19 -32 -78 -100 -130 -152 -93 -92 -101 -103 -33 -53 17 13 32 22 32 19
0 -3 -25 -23 -55 -45 -85 -61 -174 -143 -207 -190 -35 -50 -75 -92 -89 -92
-11 0 -7 8 29 60 13 19 -9 1 -50 -42 -41 -42 -87 -100 -103 -130 -16 -29 -40
-71 -54 -93 -14 -22 -26 -44 -27 -50 -16 -77 -16 -93 4 -113 11 -11 22 -26 25
-33 4 -10 6 -10 6 -1 1 6 12 12 25 12 13 0 44 12 70 26 25 14 51 22 57 18 7
-4 9 -3 5 4 -8 13 43 54 57 45 5 -3 7 -1 3 5 -7 12 33 44 46 36 5 -3 7 -1 6 4
-2 5 17 29 42 53 25 24 58 61 74 81 15 21 32 35 37 32 5 -3 8 -2 7 3 -4 14 48
94 56 86 4 -5 7 -3 5 2 -4 19 50 145 63 145 4 0 8 5 8 12 0 7 15 28 33 47 17
20 22 27 10 17 -34 -29 -28 -9 13 38 45 53 49 58 63 84 7 13 16 20 20 17 5 -2
8 3 7 13 -1 12 5 16 19 14 17 -2 18 -1 5 8 -11 9 -12 13 -2 17 6 2 10 9 6 14
-3 5 2 12 10 15 9 3 13 10 10 15 -3 6 1 21 10 34 9 13 16 34 16 45 0 16 -19 2
-81 -62 -45 -46 -77 -76 -71 -68 6 8 38 43 71 76 33 34 74 84 91 110 29 45 31
42 13 -16 -3 -8 10 6 28 32 19 26 39 46 46 43 7 -2 10 1 7 8 -5 15 70 99 80
90 4 -4 4 0 0 10 -3 9 -2 17 3 17 12 0 58 85 67 123 3 15 5 27 2 27 -2 0 -18
-22 -36 -49z m-76 -99 c-5 -4 -25 -27 -44 -52 -47 -62 -55 -70 -37 -35 13 27
26 45 68 93 6 7 14 11 17 7 4 -3 2 -9 -4 -13z m-420 -663 c-19 -28 -34 -56
-34 -61 0 -6 -6 -5 -15 2 -13 11 -14 10 -9 -4 4 -11 -2 -26 -16 -41 -22 -23
-40 -25 -40 -5 0 17 62 80 73 73 6 -3 7 -1 3 5 -5 8 57 80 71 82 1 0 -14 -23
-33 -51z"/>
<path d="M3025 3380 c-3 -6 1 -7 9 -4 18 7 21 14 7 14 -6 0 -13 -4 -16 -10z"/>
<path d="M1230 3240 c0 -5 5 -10 11 -10 5 0 7 5 4 10 -3 6 -8 10 -11 10 -2 0
-4 -4 -4 -10z"/>
<path d="M1475 3031 c-3 -5 -2 -12 3 -15 5 -3 9 1 9 9 0 17 -3 19 -12 6z"/>
<path d="M1655 2979 c-3 -4 2 -6 10 -5 21 3 28 13 10 13 -9 0 -18 -4 -20 -8z"/>
<path d="M1055 2879 c-15 -24 -57 -79 -91 -121 -35 -43 -71 -92 -80 -110 -15
-30 -35 -88 -30 -88 1 0 20 24 41 52 62 82 77 98 88 91 6 -3 7 -1 4 4 -9 15
32 59 51 55 12 -2 13 0 5 5 -9 6 -4 25 18 71 37 77 34 100 -6 41z"/>
<path d="M927 2756 c-25 -24 -70 -82 -102 -130 -31 -47 -63 -86 -72 -86 -13 0
-14 2 -2 18 13 16 13 16 -5 2 -10 -8 -36 -42 -57 -76 -22 -34 -75 -96 -119
-138 -44 -42 -80 -82 -80 -89 0 -6 -13 -21 -29 -32 -46 -32 -116 -100 -147
-142 -43 -59 -86 -103 -96 -97 -4 3 3 20 15 37 42 56 41 63 -3 17 -72 -76
-116 -135 -159 -214 -23 -42 -46 -76 -52 -76 -6 0 -9 -7 -5 -15 3 -8 1 -27 -5
-42 -15 -39 -2 -104 18 -96 10 4 14 2 10 -3 -8 -13 61 -8 77 5 9 7 16 7 25 -2
10 -9 11 -8 6 6 -5 12 -2 17 9 17 9 0 16 5 16 11 0 5 5 7 10 4 6 -3 10 -2 10
4 0 14 55 42 65 33 5 -4 6 -2 3 3 -3 6 7 23 23 38 16 16 29 26 29 23 0 -3 23
18 52 47 28 28 56 51 61 49 4 -1 6 2 2 8 -3 5 -1 10 6 10 7 0 10 3 6 6 -8 8
24 43 37 40 6 -2 8 -1 4 1 -5 3 -3 13 3 24 5 11 14 17 20 14 5 -4 9 -3 8 2 -4
21 2 34 13 27 6 -4 8 -3 5 4 -9 14 3 43 14 36 5 -3 6 2 3 10 -4 9 1 18 10 22
9 3 14 10 11 14 -3 4 4 29 16 55 18 41 22 45 37 33 15 -11 15 -11 4 3 -11 15
-9 20 15 39 26 21 26 23 5 17 -19 -4 -21 -3 -11 9 6 7 15 11 20 8 5 -3 8 0 7
8 -2 7 2 12 9 11 7 -2 10 4 7 12 -4 8 -1 15 5 15 6 0 11 5 11 11 0 16 26 39
35 31 5 -4 5 -1 1 6 -9 16 32 74 46 66 7 -4 8 -2 4 4 -4 6 -2 19 3 29 71 134
73 161 7 93 -74 -77 -103 -96 -36 -25 30 33 58 62 61 65 3 3 28 43 54 90 26
47 63 104 82 128 44 54 36 54 -20 -2z m-232 -356 c-3 -5 -11 -10 -16 -10 -6 0
-7 5 -4 10 3 6 11 10 16 10 6 0 7 -4 4 -10z m-130 -96 c-29 -24 -77 -54 -64
-40 11 12 84 65 89 65 3 0 -8 -11 -25 -25z m-2 -184 c-9 -16 -21 -30 -25 -30
-4 0 -7 -3 -6 -7 2 -14 -14 -43 -24 -43 -5 0 -6 5 -2 12 4 7 3 8 -4 4 -6 -4
-9 -13 -5 -22 5 -14 -30 -54 -49 -54 -21 0 -2 32 59 98 37 40 69 72 71 72 2 0
-5 -13 -15 -30z"/>
<path d="M2385 2760 c-3 -6 1 -7 9 -4 18 7 21 14 7 14 -6 0 -13 -4 -16 -10z"/>
<path d="M4473 2725 c0 -8 4 -12 9 -9 5 3 6 10 3 15 -9 13 -12 11 -12 -6z"/>
<path d="M1619 2404 c-12 -21 -44 -63 -69 -93 -26 -31 -61 -76 -78 -100 -18
-24 -32 -39 -32 -33 0 6 23 42 51 79 29 37 41 59 28 48 -42 -35 -79 -78 -111
-130 -50 -79 -89 -126 -100 -119 -5 3 -2 15 9 27 18 21 18 21 -1 7 -11 -8 -39
-46 -64 -85 -25 -38 -83 -108 -131 -154 -76 -74 -80 -79 -33 -46 70 49 66 38
-5 -16 -32 -24 -77 -61 -100 -82 -23 -22 -51 -46 -62 -53 -10 -8 -35 -37 -54
-66 -19 -29 -47 -64 -61 -77 -26 -24 -26 -24 -26 -3 0 12 3 22 8 22 4 0 15 15
25 33 15 27 11 25 -30 -18 -67 -69 -106 -121 -143 -190 -18 -33 -40 -71 -48
-85 -18 -27 -18 -28 -28 -82 -9 -54 13 -85 65 -90 28 -2 42 1 46 10 3 7 9 11
14 8 5 -4 11 0 14 6 3 10 7 10 19 0 11 -9 18 -10 23 -2 4 6 3 9 -2 8 -4 -2 -9
2 -10 7 -1 6 6 10 16 9 11 0 17 5 14 12 -4 10 7 18 29 23 4 1 25 17 45 37 21
19 46 42 55 51 9 8 22 12 29 7 8 -4 10 -3 5 4 -9 14 43 74 57 65 6 -3 7 -1 3
5 -4 7 10 28 31 49 21 20 33 34 26 30 -7 -4 4 16 24 45 19 29 39 63 44 76 32
82 50 111 67 106 14 -5 15 -4 2 5 -13 9 -11 14 13 36 33 31 35 39 5 24 -14 -6
-7 4 17 27 22 21 38 39 36 42 -1 2 6 15 18 28 11 13 20 27 20 30 -1 3 8 16 19
28 10 13 27 42 38 64 10 23 22 42 28 42 5 0 7 3 3 6 -3 4 1 20 9 36 24 46 5
53 -29 9 -17 -22 -33 -38 -35 -36 -3 2 9 20 26 39 17 19 43 56 57 81 15 25 29
45 31 45 5 0 -17 -51 -30 -70 -10 -13 -9 -13 9 0 35 27 53 48 60 69 3 12 11
19 16 16 5 -4 9 -2 9 3 0 15 61 87 72 84 5 -1 7 1 4 6 -3 5 4 19 15 30 11 12
16 22 12 22 -4 0 -3 4 3 8 12 8 47 103 40 109 -2 2 -14 -13 -27 -33z m-349
-467 l-44 -42 40 46 c21 25 41 44 44 42 2 -2 -16 -23 -40 -46z m-172 -343
c-23 -36 -47 -68 -55 -71 -7 -3 -13 -11 -13 -19 0 -8 -7 -14 -15 -14 -8 0 -15
7 -15 15 0 8 5 15 10 15 6 0 9 3 8 8 -5 13 45 61 56 55 6 -3 8 -2 3 2 -6 7 48
75 60 75 1 0 -16 -30 -39 -66z"/>
<path d="M2258 1952 c-9 -15 -30 -43 -47 -62 -17 -19 -31 -38 -31 -42 0 -5 -5
-8 -11 -8 -5 0 -7 6 -3 13 5 7 0 6 -12 -3 -41 -32 -88 -89 -140 -167 -29 -46
-61 -83 -69 -83 -14 0 -14 3 1 25 9 14 14 25 11 25 -3 0 -32 -39 -65 -87 -54
-80 -117 -149 -197 -218 -22 -19 -25 -24 -10 -20 l20 7 -20 -16 c-89 -72 -158
-140 -191 -187 -36 -52 -81 -96 -89 -87 -3 2 7 21 20 41 40 59 29 54 -34 -14
-33 -35 -81 -100 -107 -144 -26 -44 -54 -91 -63 -105 -8 -14 -16 -27 -16 -30
-1 -3 -4 -22 -9 -43 -8 -44 10 -97 34 -97 9 0 22 -6 29 -12 11 -10 13 -10 7 0
-4 7 -1 12 8 12 9 0 17 -1 19 -2 1 -2 9 3 17 10 42 36 153 102 162 96 7 -5 8
-2 4 5 -12 19 25 42 44 28 13 -10 13 -10 2 4 -11 14 -8 20 15 40 16 13 55 56
87 94 33 39 64 73 70 77 6 4 8 8 3 8 -4 0 4 17 17 38 14 20 28 49 31 65 4 15
11 27 16 27 5 0 8 3 7 8 -4 11 42 82 53 82 6 0 7 5 4 10 -3 6 -1 10 4 10 6 0
11 5 11 11 0 5 -5 7 -12 3 -6 -4 4 12 23 37 19 24 37 46 42 47 4 2 7 8 7 13 0
6 18 34 40 63 22 29 40 55 40 58 0 3 10 27 22 54 37 83 30 82 -53 -3 -44 -46
-82 -83 -86 -83 -3 0 29 36 70 80 42 43 90 104 108 135 32 57 51 77 24 25 -8
-16 -15 -39 -15 -51 0 -15 12 -4 42 41 23 35 50 65 60 68 10 2 16 8 13 12 -9
14 37 62 53 55 12 -4 13 -3 2 10 -12 14 -7 20 15 15 6 -1 7 2 2 6 -4 4 -1 17
6 28 17 25 41 96 35 101 -2 3 -11 -8 -20 -23z m-134 -171 c-21 -28 -40 -49
-42 -46 -2 2 12 27 33 55 21 28 39 49 42 46 3 -2 -12 -27 -33 -55z m-344 -395
c0 -2 -17 -16 -37 -31 l-38 -26 35 30 c34 31 40 35 40 27z m-9 -183 c-5 -10
-19 -28 -30 -40 -12 -12 -21 -26 -21 -31 0 -16 -60 -86 -75 -88 -19 -3 -19 25
0 32 8 3 17 15 21 26 3 12 11 17 20 14 9 -3 12 -1 9 4 -4 6 13 30 37 55 47 49
53 53 39 28z"/>
<path d="M335 1741 c-3 -5 -2 -12 3 -15 5 -3 9 1 9 9 0 17 -3 19 -12 6z"/>
<path d="M286 1702 c-3 -5 1 -9 9 -9 8 0 12 4 9 9 -3 4 -7 8 -9 8 -2 0 -6 -4
-9 -8z"/>
<path d="M3399 1673 c-13 -16 -12 -17 4 -4 9 7 17 15 17 17 0 8 -8 3 -21 -13z"/>
<path d="M3115 1611 c-3 -5 -2 -12 3 -15 5 -3 9 1 9 9 0 17 -3 19 -12 6z"/>
<path d="M2810 1539 c0 -5 5 -7 10 -4 6 3 10 8 10 11 0 2 -4 4 -10 4 -5 0 -10
-5 -10 -11z"/>
<path d="M2650 1456 c0 -2 8 -10 18 -17 15 -13 16 -12 3 4 -13 16 -21 21 -21
13z"/>
<path d="M1410 701 c0 -6 4 -13 10 -16 6 -3 7 1 4 9 -7 18 -14 21 -14 7z"/>
<path d="M1336 653 c-6 -14 -5 -15 5 -6 7 7 10 15 7 18 -3 3 -9 -2 -12 -12z"/>
</g>
</svg>
